<svg xmlns="http://www.w3.org/2000/svg" width="128" height="128" viewBox="0 0 128 128">
  <title>ENVELOPE</title>
  <path d="M121.693,23.881H6.307a1.75,1.75,0,0,0-1.75,1.75v76.738a1.75,1.75,0,0,0,1.75,1.75H121.693a1.75,1.75,0,0,0,1.75-1.75V25.631A1.75,1.75,0,0,0,121.693,23.881ZM8.057,29.541,46.628,64,8.057,98.459ZM69.365,70.033a8.048,8.048,0,0,1-10.73,0L10.892,27.381H117.108ZM49.254,66.347l7.05,6.3a11.549,11.549,0,0,0,15.393,0l7.048-6.3,38.363,34.273H10.892ZM81.372,64l38.571-34.459V98.459Z"/>
</svg>
